<?xml version="1.0" encoding="UTF-8" standalone="no"?>
<svg
   xmlns:dc="http://purl.org/dc/elements/1.1/"
   xmlns:cc="http://creativecommons.org/ns#"
   xmlns:rdf="http://www.w3.org/1999/02/22-rdf-syntax-ns#"
   xmlns:svg="http://www.w3.org/2000/svg"
   xmlns="http://www.w3.org/2000/svg"
   xmlns:sodipodi="http://sodipodi.sourceforge.net/DTD/sodipodi-0.dtd"
   xmlns:inkscape="http://www.inkscape.org/namespaces/inkscape"
   inkscape:version="1.0 (4035a4fb49, 2020-05-01)"
   sodipodi:docname="ic_launcher_round_tmp.svg"
   id="svg12"
   version="1.1"
   viewBox="0 0 192 192"
   height="192"
   width="192">
  <metadata
     id="metadata18">
    <rdf:RDF>
      <cc:Work
         rdf:about="">
        <dc:format>image/svg+xml</dc:format>
        <dc:type
           rdf:resource="http://purl.org/dc/dcmitype/StillImage" />
        <dc:title></dc:title>
      </cc:Work>
    </rdf:RDF>
  </metadata>
  <defs
     id="defs16" />
  <sodipodi:namedview
     inkscape:current-layer="svg12"
     inkscape:window-maximized="0"
     inkscape:window-y="20"
     inkscape:window-x="1920"
     inkscape:cy="123.44858"
     inkscape:cx="158.58289"
     inkscape:zoom="1.9166667"
     showgrid="false"
     id="namedview14"
     inkscape:window-height="691"
     inkscape:window-width="1278"
     inkscape:pageshadow="2"
     inkscape:pageopacity="0"
     guidetolerance="10"
     gridtolerance="10"
     objecttolerance="10"
     borderopacity="1"
     bordercolor="#666666"
     pagecolor="#ffffff" />
  <g
     transform="matrix(3.9999924,0,0,3.9999997,-2.7999449e-6,-4017.4485)"
     id="g4200">
    <ellipse
       ry="21.999985"
       rx="21.999989"
       cy="1028.3622"
       cx="23.999994"
       id="path4137"
       style="fill:#424242;fill-opacity:1;stroke:#000000;stroke-width:0;stroke-miterlimit:4;stroke-dasharray:none;stroke-opacity:0" />
    <path
       inkscape:connector-curvature="0"
       id="path4137-0"
       d="m 24.000005,1006.3622 a 21.999989,21.999494 0 0 0 -22,21.9995 21.999989,21.999494 0 0 0 0.0059,0.1465 21.999989,21.999494 0 0 1 21.994141,-21.896 21.999989,21.999494 0 0 1 21.994141,21.853 21.999989,21.999494 0 0 0 0.0059,-0.1035 21.999989,21.999494 0 0 0 -22,-21.9995 z"
       style="fill:#ffffff;fill-opacity:0.196078;stroke:#000000;stroke-width:0;stroke-miterlimit:4;stroke-dasharray:none;stroke-opacity:0" />
    <path
       id="path4137-0-3"
       d="m 24.000005,1050.3622 a 21.999989,21.999985 0 0 1 -22,-22 21.999989,21.999985 0 0 1 0.0059,-0.1465 21.999989,21.999985 0 0 0 21.9941,21.8965 21.999989,21.999985 0 0 0 21.994141,-21.8535 21.999989,21.999985 0 0 1 0.0059,0.1035 21.999989,21.999985 0 0 1 -22,22 z"
       style="fill:#000000;fill-opacity:0.196078;stroke:#000000;stroke-width:0;stroke-miterlimit:4;stroke-dasharray:none;stroke-opacity:0"
       inkscape:connector-curvature="0" />
  </g>
  <g
     transform="matrix(1.9946,0,0,1.994608,-11.000268,-11.454728)"
     id="g909">
    <path
       d="m 103.426,146.731 c 10.234,10.234 27.539,9.521 38.653,-1.592 11.114,-11.113 11.826,-28.419 1.592,-38.653 C 133.437,96.252 71.044,33.74 71.044,33.74 l -7.951,9.069 c 0,0 1.497,6.213 -0.319,8.284 -1.816,2.071 -9.701,3.147 -9.701,3.147 L 36.564,73.073 c 0,0 -1.861,4.935 -1.092,5.704 z"
       fill="#000000"
       id="path2" />
    <path
       d="m 47.713,42.317 v 7.766 l 7.886,-0.008 c 0.1,0 0.192,-0.003 0.282,-0.009 2.073,-0.137 3.694,-1.837 3.694,-3.87 0,-2.139 -1.78,-3.879 -3.969,-3.879 z m -7.798,38.358 c -4.307,0 -7.799,-3.413 -7.799,-7.623 V 58.524 c -0.028,-0.263 -0.043,-0.531 -0.043,-0.802 0,-0.276 0.014,-0.549 0.043,-0.817 v -22.21 c 0,-4.21 3.492,-7.624 7.799,-7.624 h 15.692 c 10.789,0 19.567,8.58 19.567,19.126 0,10.027 -8.012,18.408 -18.24,19.081 -0.435,0.029 -0.883,0.044 -1.327,0.044 l -7.893,0.008 v 7.723 c 0,4.21 -3.491,7.623 -7.799,7.623 z"
       fill="#c5e1a5"
       id="path4" />
    <path
       d="m 47.713,42.317 v 7.766 l 7.886,-0.008 c 0.1,0 0.192,-0.003 0.282,-0.009 2.073,-0.137 3.694,-1.837 3.694,-3.87 0,-2.139 -1.78,-3.879 -3.969,-3.879 z m -7.798,38.358 c -4.307,0 -7.799,-3.413 -7.799,-7.623 V 34.694 c 0,-4.21 3.492,-7.624 7.799,-7.624 h 15.692 c 10.789,0 19.567,8.58 19.567,19.126 0,10.027 -8.012,18.408 -18.24,19.081 -0.435,0.029 -0.883,0.044 -1.327,0.044 l -7.893,0.008 v 7.723 c 0,4.21 -3.491,7.623 -7.799,7.623 z"
       fill="#00000000"
       stroke-width="1.37201"
       stroke="#7cb342"
       id="path6"
       style="fill:#c5e1a5;fill-opacity:1" />
    <path
       d="M 39.915,73.052 V 34.694 h 15.692 c 6.499,0 11.767,5.15 11.767,11.502 0,6.089 -4.84,11.073 -10.964,11.476 -0.266,0.018 -0.533,0.027 -0.803,0.027 H 39.915"
       fill="#00000000"
       stroke-linecap="round"
       stroke-width="1.37201"
       stroke="#7cb342"
       id="path8"
       style="fill:none" />
    <path
       d="m 46.341,30.322 c 1.196,1.668 1.655,3.691 1.293,5.695 -0.362,2.005 -1.502,3.752 -3.21,4.92 -3.525,2.411 -8.402,1.572 -10.87,-1.871 -1.196,-1.668 -1.655,-3.691 -1.293,-5.696 0.362,-2.005 1.502,-3.752 3.21,-4.92 3.525,-2.411 8.401,-1.572 10.869,1.871 z m 21.098,50.349 c -2.458,0 -4.876,-1.132 -6.394,-3.249 L 50.023,62.047 c -2.472,-3.448 -1.616,-8.202 1.911,-10.617 3.527,-2.417 8.39,-1.58 10.862,1.868 l 11.022,15.375 c 2.472,3.448 1.616,8.202 -1.911,10.617 -1.362,0.933 -2.923,1.381 -4.469,1.381 z"
       fill="#7cb342"
       id="path10" />
  </g>
</svg>
