<?xml version="1.0" encoding="UTF-8" standalone="no"?>
<svg
   xmlns:dc="http://purl.org/dc/elements/1.1/"
   xmlns:cc="http://creativecommons.org/ns#"
   xmlns:rdf="http://www.w3.org/1999/02/22-rdf-syntax-ns#"
   xmlns:svg="http://www.w3.org/2000/svg"
   xmlns="http://www.w3.org/2000/svg"
   xmlns:sodipodi="http://sodipodi.sourceforge.net/DTD/sodipodi-0.dtd"
   xmlns:inkscape="http://www.inkscape.org/namespaces/inkscape"
   inkscape:version="1.0 (4035a4fb49, 2020-05-01)"
   sodipodi:docname="ic_launcher.svg"
   id="svg12"
   version="1.1"
   viewBox="0 0 192 192"
   height="192"
   width="192">
  <metadata
     id="metadata18">
    <rdf:RDF>
      <cc:Work
         rdf:about="">
        <dc:format>image/svg+xml</dc:format>
        <dc:type
           rdf:resource="http://purl.org/dc/dcmitype/StillImage" />
        <dc:title />
      </cc:Work>
    </rdf:RDF>
  </metadata>
  <defs
     id="defs16" />
  <sodipodi:namedview
     showguides="false"
     inkscape:current-layer="svg12"
     inkscape:window-maximized="0"
     inkscape:window-y="20"
     inkscape:window-x="1920"
     inkscape:cy="90.320976"
     inkscape:cx="-40.197743"
     inkscape:zoom="1.9166667"
     showgrid="false"
     id="namedview14"
     inkscape:window-height="691"
     inkscape:window-width="1278"
     inkscape:pageshadow="2"
     inkscape:pageopacity="0"
     guidetolerance="10"
     gridtolerance="10"
     objecttolerance="10"
     borderopacity="1"
     bordercolor="#666666"
     pagecolor="#ffffff"
     inkscape:document-rotation="0" />
  <g
     transform="matrix(1.604997,0,0,1.6049951,-58.079789,-58.079253)"
     id="g843">
    <path
       d="m 84.168082,72.951099 v 15.490125 l 15.729415,-0.01596 c 0.199463,0 0.382963,-0.006 0.562473,-0.01795 4.13481,-0.273261 7.36806,-3.664095 7.36806,-7.719133 0,-4.266466 -3.55039,-7.737084 -7.91657,-7.737084 z M 68.614191,149.46027 c -8.590742,0 -15.555885,-6.80759 -15.555885,-15.20489 V 57.746202 c 0,-8.3973 6.965143,-15.206891 15.555885,-15.206891 h 31.299263 c 21.519736,0 39.028336,17.113736 39.028336,38.148872 0,19.999937 -15.98073,36.716747 -36.3815,38.059117 -0.86765,0.0578 -1.76123,0.0878 -2.646836,0.0878 l -15.743378,0.016 v 15.40436 c 0,8.3973 -6.963148,15.20489 -15.555885,15.20489 z"
       fill="#00000000"
       stroke-width="2.73662"
       stroke="#7cb342"
       id="path6"
       style="fill:#c5e1a5;fill-opacity:1" />
    <path
       d="m 84.168082,72.951099 v 15.490125 l 15.729415,-0.01596 c 0.199463,0 0.382963,-0.006 0.562473,-0.01795 4.13481,-0.273261 7.36806,-3.664095 7.36806,-7.719133 0,-4.266466 -3.55039,-7.737084 -7.91657,-7.737084 z M 68.614191,149.46027 c -8.590742,0 -15.555885,-6.80759 -15.555885,-15.20489 v -28.97767 c -0.05585,-0.52458 -0.08577,-1.05914 -0.08577,-1.59968 0,-0.55051 0.02792,-1.09503 0.08577,-1.62959 V 57.748197 c 0,-8.3973 6.965143,-15.206892 15.555885,-15.206892 h 31.299263 c 21.519736,0 39.028336,17.113737 39.028336,38.148873 0,19.999932 -15.98073,36.716742 -36.3815,38.059112 -0.86765,0.0579 -1.76123,0.0878 -2.646836,0.0878 l -15.743378,0.016 v 15.40436 c 0,8.3973 -6.963148,15.2049 -15.555885,15.2049 z"
       fill="#c5e1a5"
       id="path4"
       style="stroke-width:1.9946" />
    <path
       d="M 68.614191,134.25538 V 57.746202 h 31.299263 c 12.962906,0 23.470456,10.272231 23.470456,22.941981 0,12.145168 -9.65386,22.086297 -21.86879,22.890117 -0.53057,0.0359 -1.06312,0.0539 -1.601666,0.0539 H 68.614191"
       fill="#00000000"
       stroke-linecap="round"
       stroke-width="2.73662"
       stroke="#7cb342"
       id="path8"
       style="fill:none" />
    <path
       d="m 81.431491,49.025776 c 2.385541,3.327006 3.301063,7.362098 2.579017,11.359292 -0.722045,3.999189 -2.995889,7.48377 -6.402666,9.813472 -7.030965,4.809 -16.758629,3.135523 -21.681302,-3.731912 -2.385541,-3.327006 -3.301063,-7.362098 -2.579017,-11.361287 0.722045,-3.999189 2.995889,-7.483769 6.402666,-9.813471 7.030965,-4.809 16.756634,-3.135524 21.679307,3.731911 z M 123.51356,149.45229 c -4.90273,0 -9.72567,-2.25789 -12.75347,-6.48048 l -21.984482,-30.6671 c -4.930651,-6.8774 -3.223274,-16.35977 3.81168,-21.176749 7.034955,-4.820967 16.734692,-3.15148 21.665342,3.725928 l 21.98448,30.667101 c 4.93066,6.87741 3.22328,16.35977 -3.81168,21.17675 -2.71664,1.86097 -5.83021,2.75455 -8.91386,2.75455 z"
       fill="#7cb342"
       id="path10"
       style="stroke-width:1.9946" />
  </g>
</svg>
