<?xml version="1.0" encoding="UTF-8" standalone="no"?>
<svg
   xmlns:dc="http://purl.org/dc/elements/1.1/"
   xmlns:cc="http://creativecommons.org/ns#"
   xmlns:rdf="http://www.w3.org/1999/02/22-rdf-syntax-ns#"
   xmlns:svg="http://www.w3.org/2000/svg"
   xmlns="http://www.w3.org/2000/svg"
   xmlns:sodipodi="http://sodipodi.sourceforge.net/DTD/sodipodi-0.dtd"
   xmlns:inkscape="http://www.inkscape.org/namespaces/inkscape"
   inkscape:version="1.0 (4035a4fb49, 2020-05-01)"
   sodipodi:docname="riot_splash_0_green.svg"
   id="svg12"
   version="1.1"
   viewBox="0 0 133.28999 164.931"
   height="164.931"
   width="133.28999">
  <metadata
     id="metadata18">
    <rdf:RDF>
      <cc:Work
         rdf:about="">
        <dc:format>image/svg+xml</dc:format>
        <dc:type
           rdf:resource="http://purl.org/dc/dcmitype/StillImage" />
        <dc:title />
      </cc:Work>
    </rdf:RDF>
  </metadata>
  <defs
     id="defs16" />
  <sodipodi:namedview
     inkscape:current-layer="svg12"
     inkscape:window-maximized="0"
     inkscape:window-y="20"
     inkscape:window-x="1920"
     inkscape:cy="67.581407"
     inkscape:cx="-56.285447"
     inkscape:zoom="1.9166667"
     showgrid="false"
     id="namedview14"
     inkscape:window-height="1047"
     inkscape:window-width="1918"
     inkscape:pageshadow="2"
     inkscape:pageopacity="0"
     guidetolerance="10"
     gridtolerance="10"
     objecttolerance="10"
     borderopacity="1"
     bordercolor="#666666"
     pagecolor="#ffffff"
     inkscape:document-rotation="0" />
  <path
     id="path4"
     fill="#aed581"
     d="m 48.849003,47.799006 v 23.297997 l 23.657997,-0.024 c 0.3,0 0.576,-0.009 0.845997,-0.027 6.219,-0.411 11.082,-5.511 11.082,-11.61 0,-6.416997 -5.34,-11.636997 -11.906997,-11.636997 z M 25.455009,162.87299 c -12.920997,0 -23.3969939,-10.239 -23.3969939,-22.869 V 96.42 c -0.084,-0.789 -0.129,-1.593003 -0.129,-2.406003 0,-0.828 0.042,-1.647 0.129,-2.451 V 24.933012 c 0,-12.63 10.4759969,-22.8719969 23.3969939,-22.8719969 H 72.531 c 32.36699,0 58.70099,25.7399939 58.70099,57.3779879 0,30.080997 -24.036,55.223987 -54.719993,57.242987 -1.305,0.087 -2.649,0.132 -3.980997,0.132 l -23.678997,0.024 v 23.169 c 0,12.63 -10.472997,22.869 -23.396994,22.869 z"
     style="stroke-width:3" />
  <path
     id="path6"
     stroke="#7cb342"
     stroke-width="4.11603"
     fill="#00000000"
     d="m 48.849003,47.799006 v 23.297997 l 23.657997,-0.024 c 0.3,0 0.576,-0.009 0.845997,-0.027 6.219,-0.411 11.082,-5.511 11.082,-11.61 0,-6.416997 -5.34,-11.636997 -11.906997,-11.636997 z M 25.455009,162.87299 c -12.920997,0 -23.3969939,-10.239 -23.3969939,-22.869 V 24.930012 c 0,-12.63 10.4759969,-22.8719969 23.3969939,-22.8719969 H 72.531 c 32.36699,0 58.70099,25.7399939 58.70099,57.3779879 0,30.080997 -24.036,55.223987 -54.719993,57.242987 -1.305,0.087 -2.649,0.132 -3.980997,0.132 l -23.678997,0.024 v 23.169 c 0,12.63 -10.472997,22.869 -23.396994,22.869 z"
     style="fill:#c5e1a5;fill-opacity:1" />
  <path
     style="fill:none"
     id="path8"
     stroke="#7cb342"
     stroke-width="4.11603"
     stroke-linecap="round"
     fill="#00000000"
     d="M 25.455009,140.00399 V 24.930012 H 72.531 c 19.49699,0 35.30099,15.449997 35.30099,34.505991 0,18.266997 -14.52,33.218994 -32.891993,34.427994 -0.798,0.054 -1.599,0.081 -2.408997,0.081 H 25.455009" />
  <path
     id="path10"
     fill="#7cb342"
     d="m 44.733006,11.814012 c 3.587997,5.004 4.964997,11.073 3.878997,17.084997 -1.086,6.015 -4.505997,11.256 -9.629997,14.759997 -10.574997,7.233 -25.205994,4.716 -32.6099909,-5.612997 -3.588,-5.004 -4.965,-11.073 -3.879,-17.087997 1.086,-6.015 4.506,-11.2559999 9.6299969,-14.7599969 10.574997,-7.2329994 25.202994,-4.7159997 32.606994,5.6129969 z M 108.02699,162.86099 c -7.374,0 -14.628,-3.396 -19.181996,-9.747 l -33.065991,-46.125 C 48.363003,96.645 50.931003,82.383 61.512,75.138 72.093,67.887003 86.681994,70.398003 94.09799,80.742 l 33.066,46.12499 c 7.416,10.344 4.848,24.606 -5.733,31.851 -4.086,2.799 -8.769,4.143 -13.407,4.143 z"
     style="stroke-width:3" />
</svg>
